<mxfile host="65bd71144e">
    <diagram name="Trang-1" id="J9FtOq5tRURp-biuBff0">
        <mxGraphModel dx="1020" dy="834" grid="1" gridSize="10" guides="1" tooltips="1" connect="1" arrows="1" fold="1" page="1" pageScale="1" pageWidth="827" pageHeight="1169" math="0" shadow="0">
            <root>
                <mxCell id="0"/>
                <mxCell id="1" parent="0"/>
                <mxCell id="53XIudgs1vDIVnULoqUu-1" value="" style="shape=umlActor;verticalLabelPosition=bottom;verticalAlign=top;html=1;outlineConnect=0;" parent="1" vertex="1">
                    <mxGeometry x="120" y="290" width="30" height="60" as="geometry"/>
                </mxCell>
                <mxCell id="53XIudgs1vDIVnULoqUu-4" value="" style="rounded=0;whiteSpace=wrap;html=1;" parent="1" vertex="1">
                    <mxGeometry x="350" y="310" width="120" height="60" as="geometry"/>
                </mxCell>
                <mxCell id="53XIudgs1vDIVnULoqUu-5" value="" style="rounded=0;whiteSpace=wrap;html=1;" parent="1" vertex="1">
                    <mxGeometry x="260" y="160" width="400" height="280" as="geometry"/>
                </mxCell>
                <mxCell id="53XIudgs1vDIVnULoqUu-6" value="đặt hàng" style="ellipse;whiteSpace=wrap;html=1;" parent="1" vertex="1">
                    <mxGeometry x="280" y="280" width="120" height="80" as="geometry"/>
                </mxCell>
                <mxCell id="53XIudgs1vDIVnULoqUu-13" value="" style="endArrow=none;html=1;rounded=0;" parent="1" target="53XIudgs1vDIVnULoqUu-6" edge="1">
                    <mxGeometry width="50" height="50" relative="1" as="geometry">
                        <mxPoint x="150" y="320" as="sourcePoint"/>
                        <mxPoint x="200" y="270" as="targetPoint"/>
                    </mxGeometry>
                </mxCell>
                <mxCell id="53XIudgs1vDIVnULoqUu-17" value="Kiểm tra giỏ hàng" style="ellipse;whiteSpace=wrap;html=1;" parent="1" vertex="1">
                    <mxGeometry x="510" y="200" width="100" height="70" as="geometry"/>
                </mxCell>
                <mxCell id="53XIudgs1vDIVnULoqUu-18" value="Tính phí vận chuyển" style="ellipse;whiteSpace=wrap;html=1;" parent="1" vertex="1">
                    <mxGeometry x="510" y="340" width="120" height="70" as="geometry"/>
                </mxCell>
                <mxCell id="53XIudgs1vDIVnULoqUu-20" value="" style="endArrow=classic;html=1;rounded=0;exitX=1;exitY=0.5;exitDx=0;exitDy=0;" parent="1" source="53XIudgs1vDIVnULoqUu-6" target="53XIudgs1vDIVnULoqUu-17" edge="1">
                    <mxGeometry width="50" height="50" relative="1" as="geometry">
                        <mxPoint x="489.87000000000006" y="190.00000000000003" as="sourcePoint"/>
                        <mxPoint x="370.0000047410903" y="238.32789282377078" as="targetPoint"/>
                    </mxGeometry>
                </mxCell>
                <mxCell id="53XIudgs1vDIVnULoqUu-25" value="&amp;lt;&amp;lt;include&amp;gt;&amp;gt;" style="edgeLabel;html=1;align=center;verticalAlign=middle;resizable=0;points=[];" parent="53XIudgs1vDIVnULoqUu-20" vertex="1" connectable="0">
                    <mxGeometry x="0.2064" y="2" relative="1" as="geometry">
                        <mxPoint x="-11" y="10" as="offset"/>
                    </mxGeometry>
                </mxCell>
                <mxCell id="53XIudgs1vDIVnULoqUu-23" value="" style="endArrow=classic;html=1;rounded=0;exitX=0.97;exitY=0.633;exitDx=0;exitDy=0;entryX=0;entryY=0.5;entryDx=0;entryDy=0;exitPerimeter=0;" parent="1" edge="1">
                    <mxGeometry width="50" height="50" relative="1" as="geometry">
                        <mxPoint x="400.0000000000001" y="330.6400000000001" as="sourcePoint"/>
                        <mxPoint x="513.6" y="375" as="targetPoint"/>
                    </mxGeometry>
                </mxCell>
                <mxCell id="53XIudgs1vDIVnULoqUu-26" value="&amp;lt;&amp;lt;include&amp;gt;&amp;gt;" style="edgeLabel;html=1;align=center;verticalAlign=middle;resizable=0;points=[];" parent="53XIudgs1vDIVnULoqUu-23" vertex="1" connectable="0">
                    <mxGeometry x="-0.0802" relative="1" as="geometry">
                        <mxPoint x="-2" y="-1" as="offset"/>
                    </mxGeometry>
                </mxCell>
                <mxCell id="7" value="User" style="text;html=1;align=center;verticalAlign=middle;resizable=0;points=[];autosize=1;strokeColor=none;fillColor=none;" vertex="1" parent="1">
                    <mxGeometry x="110" y="350" width="50" height="30" as="geometry"/>
                </mxCell>
                <mxCell id="8" value="Order system" style="text;html=1;align=center;verticalAlign=middle;whiteSpace=wrap;rounded=0;" vertex="1" parent="1">
                    <mxGeometry x="400" y="160" width="80" height="30" as="geometry"/>
                </mxCell>
            </root>
        </mxGraphModel>
    </diagram>
</mxfile>